Coordinates
version=1
nRows=19
nColumns=24
inDegrees=yes

Units are S.I. units (second, meters, Newtons, ...)
Angles are in degrees.

endheader
time	pelvis_tilt	pelvis_list	pelvis_rotation	pelvis_tx	pelvis_ty	pelvis_tz	hip_flexion_r	hip_adduction_r	hip_rotation_r	knee_angle_r	ankle_angle_r	subtalar_angle_r	mtp_angle_r	hip_flexion_l	hip_adduction_l	hip_rotation_l	knee_angle_l	ankle_angle_l	subtalar_angle_l	mtp_angle_l	lumbar_extension	lumbar_bending	lumbar_rotation
      4.06000000	     -5.20671191	     -7.46765448	     -0.07024163	      0.00383371	     -0.01943855	     -0.12192965	     12.94320711	     15.41002050	      8.04615777	    -20.50615004	      1.57676326	     -4.83756569	      9.49658722	     31.21045698	     -9.22541998	     -9.64495956	    -68.47932390	     -6.88596232	    -10.74018027	    -15.25823952	      4.32339654	      6.31130131	     -1.00972293
      4.06500000	     -5.18892051	     -7.31150728	     -0.18376445	      0.00984731	     -0.01895503	     -0.12153999	     12.18720615	     15.30673430	      8.44947090	    -20.12808688	      1.82767426	     -4.91997645	      9.30312107	     31.91887291	     -8.97104640	     -9.79849463	    -67.67692064	     -6.28049574	    -10.54428904	    -14.89974144	      4.24595927	      6.17136559	     -0.75800216
      4.07000000	     -5.11285004	     -7.19026050	     -0.33094250	      0.01586927	     -0.01844930	     -0.12101985	     11.34635032	     15.25426641	      8.90838981	    -19.72459256	      2.04311295	     -5.00822778	      8.91887112	     32.52472089	     -8.79122938	     -9.94906888	    -66.79658973	     -5.69759816	    -10.21793260	    -14.33877708	      4.10054772	      6.06621023	     -0.39177005
      4.07500000	     -5.11844307	     -7.02798439	     -0.46937749	      0.02190001	     -0.01805581	     -0.12051868	     10.62128247	     15.13617509	      9.23982221	    -19.34199455	      2.27807040	     -5.04575566	      8.70832897	     33.18547388	     -8.57284136	    -10.13639716	    -65.82540250	     -5.10983821	     -9.84037295	    -13.87518384	      4.05636795	      5.90407126	     -0.11807478
      4.08000000	     -5.11177008	     -6.88010184	     -0.58991448	      0.02790213	     -0.01772894	     -0.12006162	      9.88776211	     15.02544748	      9.58537950	    -18.96160779	      2.51095157	     -5.10419239	      8.50160765	     33.81378257	     -8.35825652	    -10.29499827	    -64.79033054	     -4.51336807	     -9.40207285	    -13.40329859	      3.99061233	      5.76601729	      0.15417465
      4.08500000	     -5.09912792	     -6.74584234	     -0.69617393	      0.03387668	     -0.01746276	     -0.11960556	      9.15209377	     14.92535651	      9.94356035	    -18.58459879	      2.73806037	     -5.17437378	      8.26263280	     34.41130962	     -8.14932383	    -10.41916235	    -63.68304154	     -3.92533103	     -8.92237240	    -12.88677738	      3.91318894	      5.63429885	      0.43108906
      4.09000000	     -5.12224949	     -6.60285512	     -0.80865949	      0.03987622	     -0.01725693	     -0.11916025	      8.46460462	     14.80509098	     10.22104713	    -18.20704050	      2.94779999	     -5.22546580	      8.09499163	     35.00986149	     -7.95001911	    -10.57852081	    -62.49965352	     -3.34152847	     -8.36209319	    -12.45737039	      3.88554275	      5.49719901	      0.67452100
      4.09500000	     -5.14067180	     -6.46749447	     -0.90624406	      0.04586007	     -0.01711233	     -0.11875564	      7.78051668	     14.68777333	     10.49557751	    -17.83990534	      3.15173947	     -5.30074880	      7.92752602	     35.57407640	     -7.74911318	    -10.71658615	    -61.24815441	     -2.74858932	     -7.75235604	    -12.05390325	      3.84876446	      5.37082861	      0.91176883
      4.10000000	     -5.15815833	     -6.33772152	     -0.98792335	      0.05181338	     -0.01702014	     -0.11840032	      7.10731662	     14.57054160	     10.76479283	    -17.48793760	      3.33707348	     -5.39090845	      7.74208027	     36.10763306	     -7.53885728	    -10.82475722	    -59.92599154	     -2.16619936	     -7.10846950	    -11.67328174	      3.80222861	      5.25207570	      1.15014185
      4.10500000	     -5.20016176	     -6.21215897	     -1.06602382	      0.05779686	     -0.01700292	     -0.11805253	      6.46578093	     14.45209197	     10.97467899	    -17.13548709	      3.52315691	     -5.47072592	      7.60255968	     36.63257363	     -7.34972271	    -10.96358763	    -58.54082590	     -1.59521310	     -6.41563669	    -11.36704274	      3.79117053	      5.13404155	      1.34280281
      4.11000000	     -5.28196715	     -6.07679899	     -1.11563411	      0.06372727	     -0.01706831	     -0.11780880	      5.90181089	     14.31337093	     11.13327494	    -16.82895880	      3.69256977	     -5.54859490	      7.51109309	     37.16654968	     -7.11001147	    -11.05676628	    -57.06926197	     -1.05423303	     -5.76004835	    -11.15307361	      3.80907951	      5.00613720	      1.47692078
      4.11500000	     -5.29040298	     -5.98167973	     -1.18683490	      0.06970053	     -0.01712420	     -0.11751159	      5.22532599	     14.21934858	     11.33058997	    -16.47266674	      3.85030714	     -5.63504208	      7.37194854	     37.58452330	     -6.96411114	    -11.19424522	    -55.56986826	     -0.48754368	     -4.93381624	    -10.93829557	      3.75689051	      4.93427668	      1.71668082
      4.12000000	     -5.39175775	     -5.86148124	     -1.21343411	      0.07561379	     -0.01730324	     -0.11735489	      4.70502932	     14.08775686	     11.42924422	    -16.19417580	      3.99829077	     -5.71078182	      7.30041050	     38.06674098	     -6.72898023	    -11.27322665	    -53.96550682	     -0.01861326	     -4.24981704	    -10.82744066	      3.79138388	      4.82670036	      1.81861695
      4.12500000	     -5.40270339	     -5.78285425	     -1.26940725	      0.08158090	     -0.01745595	     -0.11716127	      4.04857944	     13.99794938	     11.57027503	    -15.85853000	      4.13941418	     -5.76563691	      7.20569723	     38.40743373	     -6.59419552	    -11.42098968	    -52.33902099	      0.51828974	     -3.38892816	    -10.74188603	      3.73656621	      4.77816017	      2.02584594
      4.13000000	     -5.49477174	     -5.68886296	     -1.29710819	      0.08749658	     -0.01771956	     -0.11705031	      3.53361277	     13.88921553	     11.62462008	    -15.60373144	      4.27639832	     -5.81374288	      7.16291365	     38.79621229	     -6.39617991	    -11.51212320	    -50.61684034	      0.94058105	     -2.64887550	    -10.72938059	      3.76805653	      4.70011762	      2.11309593
      4.13500000	     -5.50825752	     -5.62106331	     -1.33127759	      0.09345396	     -0.01795913	     -0.11698154	      2.90644660	     13.79491507	     11.69419661	    -15.30598214	      4.40994199	     -5.80703927	      7.13278736	     39.05721961	     -6.25253266	    -11.66029803	    -48.86706970	      1.43100932	     -1.79443540	    -10.79265479	      3.70423966	      4.67415456	      2.30408656
      4.14000000	     -5.57545192	     -5.55945961	     -1.34990649	      0.09941826	     -0.01829064	     -0.11696188	      2.36381275	     13.70364089	     11.70477888	    -15.04949232	      4.54075622	     -5.76222538	      7.15006722	     39.34049383	     -6.09897624	    -11.80115550	    -47.05799042	      1.84712678	     -0.98364640	    -10.89573230	      3.70952847	      4.64399577	      2.40107699
      4.14500000	     -5.63957545	     -5.51176233	     -1.37231948	      0.10537710	     -0.01866283	     -0.11699838	      1.82894239	     13.61760736	     11.68018536	    -14.80782163	      4.67417176	     -5.66582879	      7.20915098	     39.58106636	     -5.95841665	    -11.94805925	    -45.20479746	      2.25397604	     -0.15307196	    -11.01598285	      3.70228829	      4.63716394	      2.50875856
      4.15000000	     -5.69347785	     -5.47830578	     -1.39448675	      0.11136096	     -0.01906583	     -0.11706132	      1.29339940	     13.54070821	     11.62738853	    -14.58710733	      4.80964774	     -5.51100110	      7.31152683	     39.77183701	     -5.83563169	    -12.11442336	    -43.31507468	      2.65382386	      0.70735424	    -11.14401792	      3.69266293	      4.64530364	      2.61122351
